<mxfile host="app.diagrams.net" modified="2023-04-11T08:40:14.764Z" agent="Mozilla/5.0 (Macintosh; Intel Mac OS X 10_15_7) AppleWebKit/537.36 (KHTML, like Gecko) Chrome/111.0.0.0 Safari/537.36" etag="YFDSZ0yAgdqrnLsAyz08" version="21.1.4" type="device">
  <diagram name="Page-1" id="i8G72QOeIwQgde39rkPP">
    <mxGraphModel dx="1434" dy="771" grid="1" gridSize="10" guides="1" tooltips="1" connect="1" arrows="1" fold="1" page="1" pageScale="1" pageWidth="827" pageHeight="1169" math="0" shadow="0">
      <root>
        <mxCell id="0" />
        <mxCell id="1" parent="0" />
        <mxCell id="8UzWjgPpnGglD_5uU9Py-1" value="" style="outlineConnect=0;dashed=0;verticalLabelPosition=bottom;verticalAlign=top;align=center;html=1;shape=mxgraph.aws3.alexa_skill;fillColor=#5294CF;gradientColor=none;" parent="1" vertex="1">
          <mxGeometry x="200" y="193" width="80" height="90" as="geometry" />
        </mxCell>
        <mxCell id="8UzWjgPpnGglD_5uU9Py-4" value="" style="edgeStyle=orthogonalEdgeStyle;rounded=0;orthogonalLoop=1;jettySize=auto;html=1;" parent="1" source="8UzWjgPpnGglD_5uU9Py-2" target="8UzWjgPpnGglD_5uU9Py-1" edge="1">
          <mxGeometry relative="1" as="geometry" />
        </mxCell>
        <mxCell id="8UzWjgPpnGglD_5uU9Py-2" value="Actor" style="shape=umlActor;verticalLabelPosition=bottom;verticalAlign=top;html=1;outlineConnect=0;" parent="1" vertex="1">
          <mxGeometry x="60" y="208" width="30" height="60" as="geometry" />
        </mxCell>
        <mxCell id="8UzWjgPpnGglD_5uU9Py-14" value="" style="edgeStyle=orthogonalEdgeStyle;rounded=0;orthogonalLoop=1;jettySize=auto;html=1;" parent="1" source="8UzWjgPpnGglD_5uU9Py-7" target="8UzWjgPpnGglD_5uU9Py-13" edge="1">
          <mxGeometry relative="1" as="geometry">
            <Array as="points">
              <mxPoint x="600" y="340" />
              <mxPoint x="600" y="340" />
            </Array>
          </mxGeometry>
        </mxCell>
        <mxCell id="8UzWjgPpnGglD_5uU9Py-7" value="Amazon SQS" style="sketch=0;outlineConnect=0;fontColor=#232F3E;gradientColor=none;strokeColor=#ffffff;fillColor=#232F3E;dashed=0;verticalLabelPosition=middle;verticalAlign=bottom;align=center;html=1;whiteSpace=wrap;fontSize=10;fontStyle=1;spacing=3;shape=mxgraph.aws4.productIcon;prIcon=mxgraph.aws4.sqs;" parent="1" vertex="1">
          <mxGeometry x="560" y="188" width="80" height="100" as="geometry" />
        </mxCell>
        <mxCell id="8UzWjgPpnGglD_5uU9Py-12" value="" style="edgeStyle=orthogonalEdgeStyle;rounded=0;orthogonalLoop=1;jettySize=auto;html=1;" parent="1" source="8UzWjgPpnGglD_5uU9Py-9" target="8UzWjgPpnGglD_5uU9Py-7" edge="1">
          <mxGeometry relative="1" as="geometry">
            <Array as="points">
              <mxPoint x="530" y="240" />
              <mxPoint x="530" y="240" />
            </Array>
          </mxGeometry>
        </mxCell>
        <mxCell id="8UzWjgPpnGglD_5uU9Py-9" value="" style="sketch=0;points=[[0,0,0],[0.25,0,0],[0.5,0,0],[0.75,0,0],[1,0,0],[0,1,0],[0.25,1,0],[0.5,1,0],[0.75,1,0],[1,1,0],[0,0.25,0],[0,0.5,0],[0,0.75,0],[1,0.25,0],[1,0.5,0],[1,0.75,0]];outlineConnect=0;fontColor=#232F3E;gradientColor=#F78E04;gradientDirection=north;fillColor=#D05C17;strokeColor=#ffffff;dashed=0;verticalLabelPosition=bottom;verticalAlign=top;align=center;html=1;fontSize=12;fontStyle=0;aspect=fixed;shape=mxgraph.aws4.resourceIcon;resIcon=mxgraph.aws4.lambda;" parent="1" vertex="1">
          <mxGeometry x="360" y="199" width="81" height="81" as="geometry" />
        </mxCell>
        <mxCell id="8UzWjgPpnGglD_5uU9Py-17" value="" style="edgeStyle=orthogonalEdgeStyle;rounded=0;orthogonalLoop=1;jettySize=auto;html=1;" parent="1" source="8UzWjgPpnGglD_5uU9Py-13" target="8UzWjgPpnGglD_5uU9Py-16" edge="1">
          <mxGeometry relative="1" as="geometry">
            <Array as="points">
              <mxPoint x="470" y="400" />
              <mxPoint x="470" y="400" />
            </Array>
          </mxGeometry>
        </mxCell>
        <mxCell id="pmxChAeH6_0YVwYOvs3n-6" value="" style="edgeStyle=orthogonalEdgeStyle;rounded=0;orthogonalLoop=1;jettySize=auto;html=1;" edge="1" parent="1" source="8UzWjgPpnGglD_5uU9Py-13" target="pmxChAeH6_0YVwYOvs3n-5">
          <mxGeometry relative="1" as="geometry" />
        </mxCell>
        <mxCell id="8UzWjgPpnGglD_5uU9Py-13" value="" style="sketch=0;points=[[0,0,0],[0.25,0,0],[0.5,0,0],[0.75,0,0],[1,0,0],[0,1,0],[0.25,1,0],[0.5,1,0],[0.75,1,0],[1,1,0],[0,0.25,0],[0,0.5,0],[0,0.75,0],[1,0.25,0],[1,0.5,0],[1,0.75,0]];outlineConnect=0;fontColor=#232F3E;gradientColor=#F78E04;gradientDirection=north;fillColor=#D05C17;strokeColor=#ffffff;dashed=0;verticalLabelPosition=bottom;verticalAlign=top;align=center;html=1;fontSize=12;fontStyle=0;aspect=fixed;shape=mxgraph.aws4.resourceIcon;resIcon=mxgraph.aws4.lambda;" parent="1" vertex="1">
          <mxGeometry x="562" y="361" width="78" height="78" as="geometry" />
        </mxCell>
        <mxCell id="8UzWjgPpnGglD_5uU9Py-24" value="" style="edgeStyle=orthogonalEdgeStyle;rounded=0;orthogonalLoop=1;jettySize=auto;html=1;" parent="1" source="8UzWjgPpnGglD_5uU9Py-16" target="8UzWjgPpnGglD_5uU9Py-9" edge="1">
          <mxGeometry relative="1" as="geometry" />
        </mxCell>
        <mxCell id="8UzWjgPpnGglD_5uU9Py-16" value="Amazon SQS" style="sketch=0;outlineConnect=0;fontColor=#232F3E;gradientColor=none;strokeColor=#ffffff;fillColor=#232F3E;dashed=0;verticalLabelPosition=middle;verticalAlign=bottom;align=center;html=1;whiteSpace=wrap;fontSize=10;fontStyle=1;spacing=3;shape=mxgraph.aws4.productIcon;prIcon=mxgraph.aws4.sqs;" parent="1" vertex="1">
          <mxGeometry x="360" y="361" width="80" height="100" as="geometry" />
        </mxCell>
        <mxCell id="8UzWjgPpnGglD_5uU9Py-19" value="" style="edgeStyle=orthogonalEdgeStyle;rounded=0;orthogonalLoop=1;jettySize=auto;html=1;exitX=1;exitY=0.5;exitDx=0;exitDy=0;exitPerimeter=0;entryX=0;entryY=0.5;entryDx=0;entryDy=0;entryPerimeter=0;" parent="1" source="8UzWjgPpnGglD_5uU9Py-1" target="8UzWjgPpnGglD_5uU9Py-9" edge="1">
          <mxGeometry relative="1" as="geometry">
            <mxPoint x="370" y="248" as="sourcePoint" />
            <mxPoint x="290" y="248" as="targetPoint" />
            <Array as="points">
              <mxPoint x="280" y="240" />
              <mxPoint x="320" y="240" />
            </Array>
          </mxGeometry>
        </mxCell>
        <mxCell id="8UzWjgPpnGglD_5uU9Py-25" value="question when did arsenal last win?" style="shape=callout;whiteSpace=wrap;html=1;perimeter=calloutPerimeter;" parent="1" vertex="1">
          <mxGeometry x="20" y="128" width="120" height="80" as="geometry" />
        </mxCell>
        <mxCell id="8UzWjgPpnGglD_5uU9Py-32" value="" style="endArrow=classic;html=1;rounded=0;" parent="1" edge="1">
          <mxGeometry width="50" height="50" relative="1" as="geometry">
            <mxPoint x="390" y="420" as="sourcePoint" />
            <mxPoint x="440" y="370" as="targetPoint" />
          </mxGeometry>
        </mxCell>
        <mxCell id="8UzWjgPpnGglD_5uU9Py-33" value="" style="edgeStyle=orthogonalEdgeStyle;rounded=0;orthogonalLoop=1;jettySize=auto;html=1;exitX=0;exitY=0.5;exitDx=0;exitDy=0;exitPerimeter=0;" parent="1" source="8UzWjgPpnGglD_5uU9Py-9" edge="1">
          <mxGeometry relative="1" as="geometry">
            <mxPoint x="300" y="258" as="sourcePoint" />
            <mxPoint x="280" y="240" as="targetPoint" />
            <Array as="points">
              <mxPoint x="320" y="240" />
              <mxPoint x="320" y="240" />
            </Array>
          </mxGeometry>
        </mxCell>
        <mxCell id="8UzWjgPpnGglD_5uU9Py-34" value="ChatGPT" style="text;html=1;align=center;verticalAlign=middle;resizable=0;points=[];autosize=1;strokeColor=none;fillColor=none;" parent="1" vertex="1">
          <mxGeometry x="365.5" y="169" width="70" height="30" as="geometry" />
        </mxCell>
        <mxCell id="8UzWjgPpnGglD_5uU9Py-36" value="chatGPT Response" style="text;html=1;align=center;verticalAlign=middle;resizable=0;points=[];autosize=1;strokeColor=none;fillColor=none;" parent="1" vertex="1">
          <mxGeometry x="435.5" y="370" width="130" height="30" as="geometry" />
        </mxCell>
        <mxCell id="8UzWjgPpnGglD_5uU9Py-37" value="Poll Queue for response" style="text;html=1;align=center;verticalAlign=middle;resizable=0;points=[];autosize=1;strokeColor=none;fillColor=none;" parent="1" vertex="1">
          <mxGeometry x="328.5" y="320" width="150" height="30" as="geometry" />
        </mxCell>
        <mxCell id="8UzWjgPpnGglD_5uU9Py-38" value="" style="edgeStyle=orthogonalEdgeStyle;rounded=0;orthogonalLoop=1;jettySize=auto;html=1;" parent="1" edge="1">
          <mxGeometry relative="1" as="geometry">
            <mxPoint x="400" y="280" as="sourcePoint" />
            <mxPoint x="400" y="360" as="targetPoint" />
          </mxGeometry>
        </mxCell>
        <mxCell id="8UzWjgPpnGglD_5uU9Py-39" value="user prompt" style="text;html=1;align=center;verticalAlign=middle;resizable=0;points=[];autosize=1;strokeColor=none;fillColor=none;" parent="1" vertex="1">
          <mxGeometry x="450" y="208" width="90" height="30" as="geometry" />
        </mxCell>
        <mxCell id="8UzWjgPpnGglD_5uU9Py-41" value="user prompt SQS Message" style="text;html=1;align=center;verticalAlign=middle;resizable=0;points=[];autosize=1;strokeColor=none;fillColor=none;" parent="1" vertex="1">
          <mxGeometry x="561.5" y="310" width="170" height="30" as="geometry" />
        </mxCell>
        <mxCell id="8UzWjgPpnGglD_5uU9Py-42" value="ChatGPTRequests" style="text;html=1;align=center;verticalAlign=middle;resizable=0;points=[];autosize=1;strokeColor=none;fillColor=none;" parent="1" vertex="1">
          <mxGeometry x="540" y="439" width="120" height="30" as="geometry" />
        </mxCell>
        <mxCell id="8UzWjgPpnGglD_5uU9Py-43" value="user prompt" style="text;html=1;align=center;verticalAlign=middle;resizable=0;points=[];autosize=1;strokeColor=none;fillColor=none;" parent="1" vertex="1">
          <mxGeometry x="275.5" y="208" width="90" height="30" as="geometry" />
        </mxCell>
        <mxCell id="8UzWjgPpnGglD_5uU9Py-45" value="Arsenal Stats" style="text;html=1;align=center;verticalAlign=middle;resizable=0;points=[];autosize=1;strokeColor=none;fillColor=none;" parent="1" vertex="1">
          <mxGeometry x="275.5" y="240" width="90" height="30" as="geometry" />
        </mxCell>
        <mxCell id="pmxChAeH6_0YVwYOvs3n-7" value="" style="edgeStyle=orthogonalEdgeStyle;rounded=0;orthogonalLoop=1;jettySize=auto;html=1;" edge="1" parent="1" source="pmxChAeH6_0YVwYOvs3n-5">
          <mxGeometry relative="1" as="geometry">
            <mxPoint x="640" y="400" as="targetPoint" />
          </mxGeometry>
        </mxCell>
        <mxCell id="pmxChAeH6_0YVwYOvs3n-5" value="OpenAI API&#xa;ChatGPT 4.0 / 3.5 turbo" style="shape=image;verticalLabelPosition=bottom;labelBackgroundColor=default;verticalAlign=top;aspect=fixed;imageAspect=0;image=https://mrvian.com/wp-content/uploads/2023/02/logo-open-ai.png;" vertex="1" parent="1">
          <mxGeometry x="700" y="367.54" width="104.2" height="64.93" as="geometry" />
        </mxCell>
      </root>
    </mxGraphModel>
  </diagram>
</mxfile>
